<?xml version="1.0" encoding="UTF-8" standalone="no"?>
<svg width="364px" height="128px" viewBox="0 0 364 128" version="1.1" xmlns="http://www.w3.org/2000/svg" xmlns:xlink="http://www.w3.org/1999/xlink" xmlns:sketch="http://www.bohemiancoding.com/sketch/ns">
    <!-- Generator: Sketch 3.3.2 (12043) - http://www.bohemiancoding.com/sketch -->
    <title>logo@2x</title>
    <desc>Created with Sketch.</desc>
    <defs></defs>
    <g id="Page-1" stroke="none" stroke-width="1" fill="none" fill-rule="evenodd" sketch:type="MSPage">
        <g id="Artboard-1" sketch:type="MSArtboardGroup" transform="translate(-376.000000, -753.000000)">
            <g id="logo" sketch:type="MSLayerGroup" transform="translate(376.000000, 753.000000)">
                <rect id="Rectangle-2-Copy" fill="#FFC200" sketch:type="MSShapeGroup" x="0" y="0" width="364" height="128"></rect>
                <path d="M14.296875,93.515625 L14.859375,103.78125 C14.859375,104.343753 14.8359377,105.374992 14.7890625,106.875 C14.7421873,108.375008 14.1796929,109.710932 13.1015625,110.882812 C12.0234321,112.054693 10.7109452,112.640625 9.1640625,112.640625 C7.61717977,112.640625 6.42187922,112.59375 5.578125,112.5 C2.48435953,112.5 0.9375,111.140639 0.9375,108.421875 C0.9375,106.171864 1.96873969,97.101642 4.03125,81.2109375 C6.09376031,65.320233 7.40624719,55.078148 7.96875,50.484375 C8.53125281,45.890602 9.02343539,42.0234532 9.4453125,38.8828125 C9.86718961,35.7421718 10.1718741,33.4218825 10.359375,31.921875 C10.5468759,30.4218675 10.8281231,28.9218825 11.203125,27.421875 C11.5781269,25.9218675 12.1406213,24.7031297 12.890625,23.765625 C14.296882,21.9843661 17.0156048,21.09375 21.046875,21.09375 C27.7969088,24.4687669 34.7343394,34.0311712 41.859375,49.78125 C46.9219003,61.0313063 50.2968666,68.156235 51.984375,71.15625 C53.6718834,74.156265 55.312492,76.2187444 56.90625,77.34375 L85.03125,28.40625 C87.0000098,26.999993 88.4999948,26.296875 89.53125,26.296875 C92.531265,26.296875 94.828117,27.6562364 96.421875,30.375 C98.015633,33.0937636 99.3515571,36.398418 100.429688,40.2890625 C101.507818,44.179707 102.445309,48.4687266 103.242188,53.15625 C104.039066,57.8437734 104.742184,62.742162 105.351562,67.8515625 C105.960941,72.960963 106.546872,77.9531006 107.109375,82.828125 C108.421882,94.5469336 109.429684,101.906235 110.132812,104.90625 C110.835941,107.906265 111.1875,110.039056 111.1875,111.304688 C111.1875,112.570319 110.765629,113.789057 109.921875,114.960938 C109.078121,116.132818 107.906258,116.71875 106.40625,116.71875 C104.906243,116.71875 103.406258,116.132818 101.90625,114.960938 C100.406242,113.789057 99.4921891,112.335946 99.1640625,110.601562 C98.8359359,108.867179 98.5078141,106.593764 98.1796875,103.78125 C97.8515609,100.968736 97.4531273,97.8047051 96.984375,94.2890625 C96.5156227,90.7734199 96.0468773,87.070332 95.578125,83.1796875 C95.1093727,79.289043 94.6406273,75.5625178 94.171875,72 C93.7031227,68.4374822 93.2812519,65.2734513 92.90625,62.5078125 C92.5312481,59.7421737 92.2500009,57.656257 92.0625,56.25 C92.0625,54.3749906 92.0156255,52.640633 91.921875,51.046875 C91.8281245,49.453117 91.4531283,48.4687519 90.796875,48.09375 C90.1406217,47.7187481 89.1328193,48.1640562 87.7734375,49.4296875 C86.4140557,50.6953188 84.5156372,53.2499808 82.078125,57.09375 C76.8280988,65.2500408 69.2344247,78.9842784 59.296875,98.296875 C57.9843684,100.640637 56.2500108,101.156257 54.09375,99.84375 C51.5624873,98.437493 49.4062589,94.8281541 47.625,89.015625 L21.75,34.03125 C19.4999887,38.5312725 17.4375094,53.4373734 15.5625,78.75 C15.2812486,81.8437655 15.0937505,84.4687392 15,86.625 C14.5312477,88.9687617 14.296875,91.2656137 14.296875,93.515625 L14.296875,93.515625 Z M132.5625,50.90625 C133.781256,68.4375877 134.812496,88.7342597 135.65625,111.796875 C135.093747,114.70314 132.84377,116.15625 128.90625,116.15625 C127.874995,116.15625 126.820318,115.945315 125.742188,115.523438 C124.664057,115.10156 123.984376,114.515629 123.703125,113.765625 L123.703125,50.90625 L132.5625,50.90625 Z M119.484375,31.78125 C119.484375,28.4999836 121.406231,26.859375 125.25,26.859375 C127.781263,26.859375 129.843742,27.4218694 131.4375,28.546875 C131.718751,29.5781302 131.859375,30.5859326 131.859375,31.5703125 C131.859375,32.5546924 131.484379,33.5156203 130.734375,34.453125 C129.984371,35.3906297 128.859383,35.859375 127.359375,35.859375 C125.859367,35.859375 124.359383,35.507816 122.859375,34.8046875 C121.359367,34.101559 120.234379,33.0937566 119.484375,31.78125 L119.484375,31.78125 Z M196.546875,86.203125 C196.546875,75.0468192 195.937506,66.8437762 194.71875,61.59375 C195.468754,60.187493 194.343765,59.484375 191.34375,59.484375 C188.156234,59.484375 184.031275,60.281242 178.96875,61.875 C173.906225,63.468758 169.781266,65.062492 166.59375,66.65625 C158.999962,70.3125183 154.781254,73.8749827 153.9375,77.34375 L153.9375,115.59375 L144.515625,115.59375 C143.296869,112.406234 142.6875,103.453199 142.6875,88.734375 C142.6875,75.6093094 142.94531,65.9531559 143.460938,59.765625 C143.976565,53.5780941 144.374999,50.0625042 144.65625,49.21875 C147.093762,47.624992 149.062492,46.828125 150.5625,46.828125 C152.906262,46.828125 154.078125,49.5937223 154.078125,55.125 C154.078125,57.2812608 153.960939,59.3671774 153.726562,61.3828125 C153.492186,63.3984476 153.375,64.7812462 153.375,65.53125 C168.562576,54.3749442 180.328083,48.796875 188.671875,48.796875 C198.140672,48.796875 203.531243,56.4374236 204.84375,71.71875 C205.406253,77.0625267 205.6875,84.4687027 205.6875,93.9375 L205.546875,105.046875 C205.546875,109.171896 205.640624,113.156231 205.828125,117 C204.89062,117.562503 204.140628,117.84375 203.578125,117.84375 C203.296874,117.75 202.687505,117.609376 201.75,117.421875 C200.812495,117.234374 199.593757,117.09375 198.09375,117 C197.156245,113.249981 196.640625,109.429707 196.546875,105.539062 C196.453125,101.648418 196.40625,98.0625164 196.40625,94.78125 L196.546875,86.203125 Z M280.21875,4.078125 C280.21875,13.07817 279.96094,21.8671446 279.445312,30.4453125 C278.929685,39.0234804 278.46094,47.4140215 278.039062,55.6171875 C277.617185,63.8203535 277.40625,72.5390163 277.40625,81.7734375 C277.40625,91.0078587 278.062493,100.781198 279.375,111.09375 C279.375,113.250011 278.976566,114.79687 278.179688,115.734375 C277.382809,116.67188 276.046884,117.140625 274.171875,117.140625 C269.765603,117.140625 267.5625,113.484412 267.5625,106.171875 L267.5625,101.53125 C254.249933,111.4688 243.000046,116.4375 233.8125,116.4375 C230.156232,116.4375 226.429706,115.546884 222.632813,113.765625 C218.835919,111.984366 215.250017,108.375027 211.875,102.9375 C211.406248,100.687489 211.171875,98.3906367 211.171875,96.046875 C211.171875,93.7031133 211.617183,90.8672041 212.507813,87.5390625 C213.398442,84.2109209 215.226549,80.7656428 217.992188,77.203125 C220.757826,73.6406072 224.109355,70.5000136 228.046875,67.78125 C236.671918,61.9687209 245.99995,59.0625 256.03125,59.0625 C260.343772,59.0625 264.46873,59.7187434 268.40625,61.03125 C268.40625,59.3437416 268.523436,56.3906461 268.757812,52.171875 C268.992189,47.9531039 269.249999,43.5000234 269.53125,38.8125 C270.093753,26.6249391 270.468749,19.4296985 270.65625,17.2265625 C270.843751,15.0234265 271.101561,13.1484452 271.429688,11.6015625 C271.757814,10.0546798 272.249997,8.71875563 272.90625,7.59375 C274.312507,5.24998828 276.749983,4.078125 280.21875,4.078125 L280.21875,4.078125 Z M221.4375,94.921875 C221.4375,102.328162 224.109348,106.03125 229.453125,106.03125 C230.296879,106.03125 231.23437,105.937501 232.265625,105.75 C236.109394,105.75 240.843722,104.625011 246.46875,102.375 C257.156303,98.1562289 263.671863,94.5000155 266.015625,91.40625 L266.015625,72.703125 C266.015625,69.4218586 263.343777,67.78125 258,67.78125 C257.343747,67.6874995 256.476568,67.640625 255.398438,67.640625 C254.320307,67.640625 252.656261,67.8749977 250.40625,68.34375 C248.156239,68.8125023 245.625014,69.6562439 242.8125,70.875 C239.999986,72.0937561 237.234389,73.5937411 234.515625,75.375 C228.796846,79.2187692 224.859386,83.7187242 222.703125,88.875 C221.859371,90.8437598 221.4375,92.8593647 221.4375,94.921875 L221.4375,94.921875 Z M356.578125,65.671875 C352.640605,62.8593609 347.578156,61.453125 341.390625,61.453125 C335.578096,61.453125 330.187525,62.5312392 325.21875,64.6875 C315.843703,68.6250197 309.421892,73.6874691 305.953125,79.875 C304.453118,82.6875141 303.703125,85.6874841 303.703125,88.875 L303.703125,93.5859375 C303.703125,96.1640754 304.17187,99.6327907 305.109375,103.992188 C306.04688,108.351584 306.515625,112.781227 306.515625,117.28125 C304.546865,117.375 302.953131,117.609373 301.734375,117.984375 C300.515619,118.359377 299.484379,118.546875 298.640625,118.546875 C297.796871,118.546875 297.070316,118.171879 296.460938,117.421875 C295.851559,116.671871 295.171879,115.218761 294.421875,113.0625 C294.328125,112.499997 294.140626,110.906263 293.859375,108.28125 C293.578124,105.656237 293.226565,102.468769 292.804688,98.71875 C292.38281,94.9687312 291.914065,90.8672098 291.398438,86.4140625 C290.88281,81.9609152 290.390627,77.5781466 289.921875,73.265625 C288.89062,63.8905781 288.093753,57.000022 287.53125,52.59375 C287.53125,50.3437387 289.171859,49.21875 292.453125,49.21875 C294.421885,49.21875 295.968744,50.0390543 297.09375,51.6796875 C298.218756,53.3203207 299.109372,55.195302 299.765625,57.3046875 C300.421878,59.414073 300.867186,61.4999897 301.101562,63.5625 C301.335939,65.6250103 301.546874,67.0781208 301.734375,67.921875 C314.109437,56.8593197 329.484283,51.328125 347.859375,51.328125 C349.921885,51.328125 352.078114,51.3749995 354.328125,51.46875 C354.890628,51.3749995 355.593746,51.328125 356.4375,51.328125 C357.281254,51.328125 358.124996,51.8906194 358.96875,53.015625 C360.000005,54.3281316 360.515625,55.9218656 360.515625,57.796875 C360.515625,62.4843984 359.203138,65.1093722 356.578125,65.671875 L356.578125,65.671875 Z" id="Mindr" fill="#FFFFFF" sketch:type="MSShapeGroup"></path>
            </g>
        </g>
    </g>
</svg>